<svg xmlns="http://www.w3.org/2000/svg" viewBox="0 0 48 48" width="48" height="48" fill="none" stroke="#3A8C3F" stroke-width="1.5" stroke-linecap="round" stroke-linejoin="round">
  <circle cx="24" cy="24" r="14"/>
  <path d="M20 18c0 0-2 3-2 4.5a2 2 0 004 0c0-1.5-2-4.5-2-4.5z"/>
  <path d="M28 20c0 0-2 3-2 4.5a2 2 0 004 0c0-1.5-2-4.5-2-4.5z"/>
  <path d="M24 28c0 0-2 3-2 4.5a2 2 0 004 0c0-1.5-2-4.5-2-4.5z"/>
  <path d="M17 26c0 0-1.5 2-1.5 3a1.5 1.5 0 003 0c0-1-1.5-3-1.5-3z"/>
  <path d="M31 24c0 0-1.5 2-1.5 3a1.5 1.5 0 003 0c0-1-1.5-3-1.5-3z"/>
</svg>
