<svg xmlns="http://www.w3.org/2000/svg" viewBox="0 0 48 48" width="48" height="48" fill="none" stroke="#3A8C3F" stroke-width="1.5" stroke-linecap="round" stroke-linejoin="round">
  <path d="M8 28c0-4 2-12 4-16"/>
  <path d="M12 12l-1-6"/>
  <path d="M12 12l2-6"/>
  <path d="M14 12l2-5"/>
  <path d="M16 12l2-4"/>
  <path d="M8 28c0 4 2 8 6 10l10 4"/>
  <path d="M40 28c0-4-2-12-4-16"/>
  <path d="M36 12l1-6"/>
  <path d="M36 12l-2-6"/>
  <path d="M34 12l-2-5"/>
  <path d="M32 12l-2-4"/>
  <path d="M40 28c0 4-2 8-6 10l-10 4"/>
</svg>
